<?xml version="1.0" encoding="UTF-8"?>
<svg id="uuid-fd0588fa-0723-4894-bb66-2d29e65f481b" data-name="Layer 2" xmlns="http://www.w3.org/2000/svg" viewBox="0 0 152.84 20.67">
  <defs>
    <style>
      .uuid-41d0fa4a-6d32-4d94-a525-126566c2e263, .uuid-d68c890f-9d5d-4918-881a-286f2384e774, .uuid-3cf650e5-35b8-4e3d-af48-b41dbb7b4170 {
        stroke-width: 0px;
      }

      .uuid-41d0fa4a-6d32-4d94-a525-126566c2e263, .uuid-74fb8bb5-8a47-42d1-bdda-79e5aca86b33 {
        fill: #b82a51;
      }

      .uuid-d68c890f-9d5d-4918-881a-286f2384e774 {
        fill: #fff;
      }

      .uuid-3cf650e5-35b8-4e3d-af48-b41dbb7b4170 {
        fill: #3c3c3c;
      }

      .uuid-74fb8bb5-8a47-42d1-bdda-79e5aca86b33 {
        stroke: #b82a51;
      }
    </style>
  </defs>
  <g id="uuid-acaecf18-06ba-4cae-89fb-0c2e4a021382" data-name="Final Logo Part 2">
    <polygon class="uuid-3cf650e5-35b8-4e3d-af48-b41dbb7b4170" points="80.1 .68 72.82 14.32 65.51 .68 63.08 .68 63.08 20.42 65.71 20.42 65.71 6 71.92 17.4 73.69 17.4 79.88 5.94 79.88 20.42 82.48 20.42 82.48 .68 80.1 .68"/>
    <polyline class="uuid-3cf650e5-35b8-4e3d-af48-b41dbb7b4170" points="90.05 13.25 90.39 12.45 90.4 12.42 94 3.9 94.05 3.9 98.03 13.25 99.01 15.6 101.08 20.42 104.05 20.42 95.23 .68 92.82 .68 84.03 20.42 86.97 20.42 89.01 15.6"/>
    <polygon class="uuid-3cf650e5-35b8-4e3d-af48-b41dbb7b4170" points="101.17 .68 101.17 3.12 108.17 3.12 108.17 20.42 111.06 20.42 111.06 3.12 118.06 3.12 118.06 .68 101.17 .68"/>
    <path class="uuid-3cf650e5-35b8-4e3d-af48-b41dbb7b4170" d="M145.3,20.67c-1.55,0-2.97-.2-4.26-.59-1.29-.41-2.38-.98-3.28-1.71l.92-2.3c.93.71,1.93,1.24,3,1.6,1.06.35,2.27.53,3.61.53,1.59,0,2.75-.28,3.5-.84.76-.58,1.15-1.33,1.15-2.24,0-.75-.27-1.33-.81-1.76-.54-.45-1.45-.8-2.72-1.06l-3-.62c-1.77-.37-3.1-.99-3.98-1.85-.86-.86-1.29-2.02-1.29-3.47,0-1.18.31-2.21.92-3.11.63-.9,1.51-1.59,2.63-2.07,1.12-.5,2.41-.76,3.86-.76,1.34,0,2.58.21,3.72.62,1.16.39,2.14.97,2.94,1.74l-.95,2.21c-1.59-1.4-3.5-2.1-5.74-2.1-1.38,0-2.48.31-3.3.92-.8.62-1.2,1.44-1.2,2.46,0,.78.25,1.41.76,1.88.5.47,1.34.82,2.52,1.06l2.97.62c1.87.39,3.26,1,4.17,1.82.92.8,1.37,1.89,1.37,3.28,0,1.16-.31,2.17-.92,3.02-.62.86-1.48,1.53-2.6,2.02-1.12.47-2.46.7-4,.7Z"/>
    <rect class="uuid-3cf650e5-35b8-4e3d-af48-b41dbb7b4170" x="121.39" y=".65" width="13.25" height="2.45"/>
    <rect class="uuid-3cf650e5-35b8-4e3d-af48-b41dbb7b4170" x="121.39" y=".62" width="13.25" height="2.5"/>
    <rect class="uuid-3cf650e5-35b8-4e3d-af48-b41dbb7b4170" x="121.39" y="17.97" width="13.25" height="2.45"/>
    <rect class="uuid-41d0fa4a-6d32-4d94-a525-126566c2e263" x="121.39" y="9.17" width="13.25" height="2.45"/>
    <polygon class="uuid-d68c890f-9d5d-4918-881a-286f2384e774" points="90.4 12.42 90.39 12.45 90.39 12.42 90.4 12.42"/>
    <path class="uuid-74fb8bb5-8a47-42d1-bdda-79e5aca86b33" d="M96.77,14.73l-2.71,4.69-2.71-4.69h5.41Z"/>
    <rect class="uuid-41d0fa4a-6d32-4d94-a525-126566c2e263" x="121.39" y="9.17" width="13.25" height="2.5"/>
  </g>
  <g id="uuid-6ccd7fbe-c083-45df-b877-b398b322e8f7" data-name="Final Logo Part 1">
    <g>
      <path class="uuid-41d0fa4a-6d32-4d94-a525-126566c2e263" d="M0,.25h13.22v2.86H3.53v5.43h9.13v2.83H3.53v5.77h9.69v2.86H0V.25Z"/>
      <path class="uuid-41d0fa4a-6d32-4d94-a525-126566c2e263" d="M32.03.25v19.74h-2.72l-10.58-13.78v13.78h-3.36V.25h2.69l10.58,13.75V.25h3.39Z"/>
      <path class="uuid-41d0fa4a-6d32-4d94-a525-126566c2e263" d="M51.63,9.32v9.46c-.9.45-1.98.8-3.26,1.06-1.28.26-2.58.39-3.91.39-2.03,0-3.8-.41-5.29-1.22-1.49-.81-2.64-1.98-3.43-3.5-.79-1.52-1.19-3.33-1.19-5.42s.4-3.87,1.19-5.39c.79-1.52,1.92-2.69,3.39-3.5,1.47-.81,3.19-1.22,5.17-1.22,1.38,0,2.68.2,3.89.6,1.21.4,2.22.98,3.02,1.72l-1.2,2.6c-.92-.71-1.82-1.22-2.7-1.53s-1.86-.46-2.93-.46c-2.03,0-3.57.6-4.61,1.81-1.04,1.2-1.55,2.99-1.55,5.36,0,4.85,2.13,7.28,6.38,7.28,1.27,0,2.54-.18,3.81-.53v-4.96h-4.26v-2.58h7.48Z"/>
    </g>
  </g>
</svg>